HIERARCHY
ROOT root
{
	OFFSET	0	13.1	24.9
	CHANNELS 6  Xposition Yposition Zposition Xrotation Yrotation Zrotation
	JOINT spine_1
	{
		OFFSET	0	9.99999	0
		CHANNELS 3  Xrotation Yrotation Zrotation
		JOINT spine_2
		{
			OFFSET	0	112	-10
			CHANNELS 3  Xrotation Yrotation Zrotation
			JOINT spine_3
			{
				OFFSET	0	206.5	19.3
				CHANNELS 3  Xrotation Yrotation Zrotation
				JOINT spine_4
				{
					OFFSET	0	110.4	14.6
					CHANNELS 3  Xrotation Yrotation Zrotation
					JOINT neck_1
					{
						OFFSET	0	71.8	-50.3
						CHANNELS 3  Xrotation Yrotation Zrotation
						JOINT neck_2
						{
							OFFSET	0	86.2	-25.8
							CHANNELS 3  Xrotation Yrotation Zrotation
							JOINT head_ee
							{
								OFFSET	0	179.8	-8.7
								CHANNELS 3  Xrotation Yrotation Zrotation
								End Site
								{
									OFFSET	1	0	0
								}
							}
						}
					}
					JOINT left_clavicle
					{
						OFFSET	-43.2	22.4	-70.8
						CHANNELS 3  Xrotation Yrotation Zrotation
						JOINT left_shoulder
						{
							OFFSET	-93.9	-5.79999	48.7
							CHANNELS 3  Xrotation Yrotation Zrotation
							JOINT left_elbow
							{
								OFFSET	-291.4	-30.8	15.2
								CHANNELS 3  Xrotation Yrotation Zrotation
								JOINT left_lowarm_twist
								{
									OFFSET	-110.7	-3.89999	13.6
									CHANNELS 3  Xrotation Yrotation Zrotation
									JOINT left_hand
									{
										OFFSET	-110.7	-3.89999	13.6
										CHANNELS 3  Xrotation Yrotation Zrotation
										JOINT left_ee
										{
											OFFSET	-80.8	-5.10001	12.1
											CHANNELS 3  Xrotation Yrotation Zrotation
											End Site
											{
												OFFSET	1	0	0
											}
										}
									}
								}
							}
						}
					}
					JOINT right_clavicle
					{
						OFFSET	43.2	22.4	-70.8
						CHANNELS 3  Xrotation Yrotation Zrotation
						JOINT right_shoulder
						{
							OFFSET	93.9	-5.79999	48.7
							CHANNELS 3  Xrotation Yrotation Zrotation
							JOINT right_elbow
							{
								OFFSET	291.4	-30.8	15.2
								CHANNELS 3  Xrotation Yrotation Zrotation
								JOINT right_lowarm_twist
								{
									OFFSET	110.7	-3.89999	13.6
									CHANNELS 3  Xrotation Yrotation Zrotation
									JOINT right_hand
									{
										OFFSET	110.7	-3.89999	13.6
										CHANNELS 3  Xrotation Yrotation Zrotation
										JOINT right_ee
										{
											OFFSET	80.8	-5.10001	12.1
											CHANNELS 3  Xrotation Yrotation Zrotation
											End Site
											{
												OFFSET	1	0	0
											}
										}
									}
								}
							}
						}
					}
				}
			}
		}
	}
	JOINT left_hip
	{
		OFFSET	-82.8	-127.5	0.300001
		CHANNELS 3  Xrotation Yrotation Zrotation
		JOINT left_knee
		{
			OFFSET	-28.2	-396.7	2.2
			CHANNELS 3  Xrotation Yrotation Zrotation
			JOINT left_ankle
			{
				OFFSET	-11.7	-411.3	35.4
				CHANNELS 3  Xrotation Yrotation Zrotation
				JOINT left_toes
				{
					OFFSET	0	-60	-88.6
					CHANNELS 3  Xrotation Yrotation Zrotation
					JOINT left_foot_ee
					{
						OFFSET	-22.5	-16.5	-42.2
						CHANNELS 3  Xrotation Yrotation Zrotation
						End Site
						{
							OFFSET	1	0	0
						}
					}
				}
			}
		}
	}
	JOINT right_hip
	{
		OFFSET	82.8	-127.5	0.300001
		CHANNELS 3  Xrotation Yrotation Zrotation
		JOINT right_knee
		{
			OFFSET	28.2	-396.7	2.2
			CHANNELS 3  Xrotation Yrotation Zrotation
			JOINT right_ankle
			{
				OFFSET	11.7	-411.3	35.4
				CHANNELS 3  Xrotation Yrotation Zrotation
				JOINT right_toes
				{
					OFFSET	0	-60	-88.6
					CHANNELS 3  Xrotation Yrotation Zrotation
					JOINT right_foot_ee
					{
						OFFSET	22.5	-16.5	-42.2
						CHANNELS 3  Xrotation Yrotation Zrotation
						End Site
						{
							OFFSET	1	0	0
						}
					}
				}
			}
		}
	}
}
MOTION
Frames: 13
Frame Time: 0.02
3177.02 653.055 -1669.29 -13.1192911974 58.8207146597 15.6495356182 1.82339 0.437336 0.38352 1.82338 0.412045 0.410571 1.82638 0.331954 0.477657 1.82629 0.403224 0.419238 -0.960127 12.3422 -3.21322 -0.475051 24.7337 -2.05077 -0.0 0.0 -0.0 -0.479086 7.00841 -0.0256935 -34.9973 -18.4183 78.1804 0.298607 -8.41442 0.0219661 0.365564 0.0127369 -0.0449502 0.156703 -2.37678 0.0474555 -0.0 0.0 -0.0 13.7887 27.0708 -27.3736 18.6423 21.5012 -57.0261 1.99253 44.6213 -0.817696 4.37519 -0.133476 0.542777 1.59119 13.3886 -5.01993 0.0 0.0 0.0 32.3948 2.73471 -12.879 5.80214 -0.282031 -0.845071 0.348954 5.0835 -0.0511096 -31.0477 0.0 0.0 -0.0 0.0 -0.0 -11.3641 -20.6517 -1.79482 -5.11771 -0.176623 -0.765297 38.4359 23.882 5.39201 -18.0042 0.0 0.0 0.0 0.0 0.0 
3101.50240751 661.172 -1665.15103574 -15.1995073382 56.2544338636 17.2817067311 2.6193 0.0969243 0.385823 2.61938 0.0721771 0.391209 2.61986 0.00653088 0.397758 2.61964 0.0692668 0.391734 0.659324 13.9558 -1.52127 1.26331 26.0463 -0.406219 -0.0 0.0 -0.0 -0.557218 6.43534 -0.240308 -31.802 -18.8586 77.664 0.442407 -12.3615 0.0479105 0.0887509 0.00311881 -0.0109055 -0.101417 -1.0408 -1.11825 -0.0 0.0 -0.0 13.1267 26.9613 -25.8529 13.7154 21.4176 -59.1294 1.88152 42.9814 -0.740854 3.47144 -0.109311 0.429861 1.96169 13.8417 -7.32258 0.0 0.0 0.0 29.0137 4.37402 -10.6831 6.54391 -0.32423 -0.950964 -0.134988 6.55567 0.0197711 -30.9158 0.0 0.0 -0.0 0.0 -0.0 -10.8197 -20.9996 1.24958 -5.87737 -0.196983 -0.880101 35.0741 22.8898 5.00571 -18.066 0.0 0.0 0.0 0.0 0.0 
3101.51860482 661.172 -1664.86539543 -15.2851384644 56.4635500548 17.3845636802 2.6193 0.0969243 0.385823 2.61938 0.0721771 0.391209 2.61986 0.00653088 0.397758 2.61964 0.0692668 0.391734 0.659324 13.9558 -1.52127 1.26331 26.0463 -0.406219 -0.0 0.0 -0.0 -0.557218 6.43534 -0.240308 -31.802 -18.8586 77.664 0.442407 -12.3615 0.0479105 0.0887509 0.00311881 -0.0109055 -0.101417 -1.0408 -1.11825 -0.0 0.0 -0.0 13.1267 26.9613 -25.8529 13.7154 21.4176 -59.1294 1.88152 42.9814 -0.740854 3.47144 -0.109311 0.429861 1.96169 13.8417 -7.32258 0.0 0.0 0.0 29.0137 4.37402 -10.6831 6.54391 -0.32423 -0.950964 -0.134988 6.55567 0.0197711 -30.9158 0.0 0.0 -0.0 0.0 -0.0 -10.8197 -20.9996 1.24958 -5.87737 -0.196983 -0.880101 35.0741 22.8898 5.00571 -18.066 0.0 0.0 0.0 0.0 0.0 
3076.5986057 660.72 -1665.96907146 -15.2578447207 56.2017205907 16.8654825369 2.78446 -0.0327769 0.331501 2.78452 -0.0538045 0.328743 2.78419 -0.106492 0.315637 2.78406 -0.0553069 0.328494 1.50996 13.8667 -1.5116 2.16013 25.744 -0.573922 -0.0 0.0 -0.0 -0.217693 5.77534 0.290966 -30.221 -19.1256 76.8892 0.500024 -13.9122 0.0610066 -2.83798e-05 -9.99944e-07 3.4865e-06 -0.0181242 -0.704122 -0.41827 -0.0 0.0 -0.0 13.0705 27.079 -25.7083 12.7555 21.3379 -60.1822 1.83025 42.193 -0.706159 3.60714 -0.113053 0.446792 1.85636 12.9145 -7.02373 0.0 0.0 0.0 28.0782 4.58713 -10.3838 6.57956 -0.326292 -0.95604 -0.900837 6.99237 0.13215 -31.2528 0.0 0.0 -0.0 0.0 -0.0 -10.2947 -20.5572 2.89765 -6.90105 -0.222007 -1.0352 36.6744 23.25 5.18699 -17.619 0.0 0.0 0.0 0.0 0.0 
3000.21535824 676.727 -1676.25691835 -15.7019055693 59.8878650254 17.5771045156 2.62843 -0.384108 0.402367 2.62843 -0.408933 0.37711 2.62571 -0.465609 0.304378 2.62582 -0.411695 0.374093 0.577751 14.3197 -0.355847 1.13279 25.7586 0.918993 -0.0 0.0 -0.0 -0.417046 6.18797 -0.0188752 -24.9648 -18.8008 72.7812 0.711089 -19.405 0.121582 -0.623841 -0.022398 0.0765203 -0.508357 1.64704 -2.68697 -0.0 0.0 -0.0 12.261 26.665 -23.9002 6.5138 20.9001 -61.0337 1.52109 36.9956 -0.508911 3.94447 -0.122181 0.488916 2.12135 13.3805 -8.61334 0.0 0.0 0.0 21.8849 2.35653 -5.9983 7.25471 -0.365954 -1.05193 5.17432 6.92947 -0.747076 -31.8445 0.0 0.0 -0.0 0.0 -0.0 -5.9877 -15.3949 5.52807 -20.5194 -0.289102 -3.11879 33.2457 19.3914 4.6647 -16.8723 0.0 0.0 0.0 0.0 0.0 
2958.15332534 682.397 -1676.80904418 -15.3101047041 57.9669354927 14.6505048495 2.64277 -0.283901 0.697189 2.64298 -0.327689 0.677712 2.63901 -0.435004 0.614367 2.63864 -0.33252 0.675355 -0.17614 15.081 1.34413 0.30602 25.8832 2.9776 -0.0 0.0 -0.0 0.11824 6.08195 0.936759 -18.8021 -18.9508 69.9947 0.897853 -23.9778 0.190666 0.592235 0.0204901 -0.0728619 -1.00194 4.26321 -4.81817 -0.0 0.0 -0.0 12.0667 26.6668 -23.4562 3.22906 20.8928 -60.9426 1.26022 31.9742 -0.361069 3.95805 -0.122544 0.490613 2.36625 14.8973 -9.58597 0.0 0.0 0.0 19.0595 1.86449 -1.47345 6.85858 -0.342546 -0.995722 11.2153 8.97038 -1.58766 -31.5815 0.0 0.0 -0.0 0.0 -0.0 -2.6467 -0.998529 8.22692 -31.4733 0.0151782 -4.76977 30.6109 12.132 4.15991 -16.4868 0.0 0.0 0.0 0.0 0.0 
2958.17535185 682.397 -1677.42494167 -15.242410255 57.8113925282 14.5705843385 2.64277 -0.283901 0.697189 2.64298 -0.327689 0.677712 2.63901 -0.435004 0.614367 2.63864 -0.33252 0.675355 -0.17614 15.081 1.34413 0.30602 25.8832 2.9776 -0.0 0.0 -0.0 0.11824 6.08195 0.936759 -18.8021 -18.9508 69.9947 0.897853 -23.9778 0.190666 0.592235 0.0204901 -0.0728619 -1.00194 4.26321 -4.81817 -0.0 0.0 -0.0 12.0667 26.6668 -23.4562 3.22906 20.8928 -60.9426 1.26022 31.9742 -0.361069 3.95805 -0.122544 0.490613 2.36625 14.8973 -9.58597 0.0 0.0 0.0 19.0595 1.86449 -1.47345 6.85858 -0.342546 -0.995722 11.2153 8.97038 -1.58766 -31.5815 0.0 0.0 -0.0 0.0 -0.0 -2.6467 -0.998529 8.22692 -31.4733 0.0151782 -4.76977 30.6109 12.132 4.15991 -16.4868 0.0 0.0 0.0 0.0 0.0 
2958.20060486 682.397 -1678.07803788 -15.1713798194 57.6463829162 14.4865775467 2.64277 -0.283901 0.697189 2.64298 -0.327689 0.677712 2.63901 -0.435004 0.614367 2.63864 -0.33252 0.675355 -0.17614 15.081 1.34413 0.30602 25.8832 2.9776 -0.0 0.0 -0.0 0.11824 6.08195 0.936759 -18.8021 -18.9508 69.9947 0.897853 -23.9778 0.190666 0.592235 0.0204901 -0.0728619 -1.00194 4.26321 -4.81817 -0.0 0.0 -0.0 12.0667 26.6668 -23.4562 3.22906 20.8928 -60.9426 1.26022 31.9742 -0.361069 3.95805 -0.122544 0.490613 2.36625 14.8973 -9.58597 0.0 0.0 0.0 19.0595 1.86449 -1.47345 6.85858 -0.342546 -0.995722 11.2153 8.97038 -1.58766 -31.5815 0.0 0.0 -0.0 0.0 -0.0 -2.6467 -0.998529 8.22692 -31.4733 0.0151782 -4.76977 30.6109 12.132 4.15991 -16.4868 0.0 0.0 0.0 0.0 0.0 
2958.19813418 682.397 -1678.01630149 -15.1780614037 57.6619842731 14.4944862981 2.64277 -0.283901 0.697189 2.64298 -0.327689 0.677712 2.63901 -0.435004 0.614367 2.63864 -0.33252 0.675355 -0.17614 15.081 1.34413 0.30602 25.8832 2.9776 -0.0 0.0 -0.0 0.11824 6.08195 0.936759 -18.8021 -18.9508 69.9947 0.897853 -23.9778 0.190666 0.592235 0.0204901 -0.0728619 -1.00194 4.26321 -4.81817 -0.0 0.0 -0.0 12.0667 26.6668 -23.4562 3.22906 20.8928 -60.9426 1.26022 31.9742 -0.361069 3.95805 -0.122544 0.490613 2.36625 14.8973 -9.58597 0.0 0.0 0.0 19.0595 1.86449 -1.47345 6.85858 -0.342546 -0.995722 11.2153 8.97038 -1.58766 -31.5815 0.0 0.0 -0.0 0.0 -0.0 -2.6467 -0.998529 8.22692 -31.4733 0.0151782 -4.76977 30.6109 12.132 4.15991 -16.4868 0.0 0.0 0.0 0.0 0.0 
2958.18981038 682.397 -1677.80501085 -15.200980622 57.7153743082 14.5216046162 2.64277 -0.283901 0.697189 2.64298 -0.327689 0.677712 2.63901 -0.435004 0.614367 2.63864 -0.33252 0.675355 -0.17614 15.081 1.34413 0.30602 25.8832 2.9776 -0.0 0.0 -0.0 0.11824 6.08195 0.936759 -18.8021 -18.9508 69.9947 0.897853 -23.9778 0.190666 0.592235 0.0204901 -0.0728619 -1.00194 4.26321 -4.81817 -0.0 0.0 -0.0 12.0667 26.6668 -23.4562 3.22906 20.8928 -60.9426 1.26022 31.9742 -0.361069 3.95805 -0.122544 0.490613 2.36625 14.8973 -9.58597 0.0 0.0 0.0 19.0595 1.86449 -1.47345 6.85858 -0.342546 -0.995722 11.2153 8.97038 -1.58766 -31.5815 0.0 0.0 -0.0 0.0 -0.0 -2.6467 -0.998529 8.22692 -31.4733 0.0151782 -4.76977 30.6109 12.132 4.15991 -16.4868 0.0 0.0 0.0 0.0 0.0 
2919.26941817 686.13 -1678.03951793 -14.1252577511 57.973195476 11.6931125764 2.66791 -0.318921 0.805651 2.66819 -0.369538 0.783726 2.66302 -0.493481 0.712226 2.66251 -0.374808 0.781219 -0.177055 15.6147 2.48773 0.299174 25.9172 4.25998 -0.0 0.0 -0.0 0.62044 5.82259 1.81803 -13.9413 -19.2 67.7859 0.985407 -26.0184 0.227671 1.65566 0.055386 -0.204202 -1.39865 5.71485 -6.78365 -0.0 0.0 -0.0 11.7968 24.1203 -23.1169 -1.1307 20.0702 -60.6671 1.16255 29.9363 -0.310822 3.94269 -0.122134 0.488693 2.55864 17.1058 -9.85839 0.0 0.0 0.0 16.7378 1.40222 3.25865 5.3509 -0.257035 -0.780395 15.5098 11.5321 -2.16465 -30.5963 0.0 0.0 -0.0 0.0 -0.0 -0.440739 12.5057 7.51354 -41.6121 0.572503 -6.22247 28.9411 5.00667 3.84742 -16.3778 0.0 0.0 0.0 0.0 0.0 
2893.77411016 693.683 -1668.94650539 -12.9285178712 58.7112452645 9.73962689428 2.48029 -0.252131 0.972628 2.48076 -0.313508 0.954616 2.47539 -0.469257 0.888473 2.47443 -0.323057 0.951427 0.169995 16.3 3.47466 0.6826 26.2659 5.32252 -0.0 0.0 -0.0 1.05839 5.63595 2.59462 -12.949 -19.0619 66.8904 0.977776 -25.8433 0.224335 2.70824 0.0875174 -0.334809 -1.27888 6.18358 -5.7824 -0.0 0.0 -0.0 11.2605 23.9687 -21.911 -3.93291 19.2166 -61.4496 1.11507 28.9142 -0.287494 3.1626 -0.100644 0.391363 2.72274 19.0352 -10.0406 0.0 0.0 0.0 14.4664 1.2514 5.36139 4.93184 -0.23428 -0.720159 16.7088 11.274 -2.31997 -29.1771 0.0 0.0 -0.0 0.0 -0.0 2.05287 17.4957 7.90887 -46.0821 0.898325 -6.82782 28.3006 6.27079 3.79442 -16.2385 0.0 0.0 0.0 0.0 0.0 
2872.93449639 695.242 -1658.51330789 -12.2831588875 60.0340456685 8.62332842465 2.39754 -0.282911 0.960432 2.39799 -0.34345 0.940486 2.39221 -0.497667 0.868797 2.39133 -0.354218 0.936484 0.245814 16.8981 4.52122 0.77681 26.4656 6.48943 -0.0 0.0 -0.0 1.42733 5.0649 3.21457 -11.703 -19.1365 66.3177 0.956897 -25.3614 0.215312 3.47438 0.109392 -0.430229 -1.27911 6.60906 -5.59118 -0.0 0.0 -0.0 11.3799 22.9502 -22.2781 -6.14131 18.7946 -61.295 1.07658 28.0704 -0.26913 2.52491 -0.0820939 0.31202 2.90624 21.1743 -10.2183 0.0 0.0 0.0 12.3464 1.58203 6.75584 4.57424 -0.215211 -0.668631 18.0498 12.0469 -2.49466 -28.0833 0.0 0.0 -0.0 0.0 -0.0 3.89716 22.0636 7.91041 -50.8344 1.29561 -7.44194 28.2271 4.60948 3.76357 -16.1972 0.0 0.0 0.0 0.0 0.0 
